<?xml version="1.0" standalone="no"?>
<!DOCTYPE svg PUBLIC "-//W3C//DTD SVG 20010904//EN"
 "http://www.w3.org/TR/2001/REC-SVG-20010904/DTD/svg10.dtd">
<svg version="1.0" xmlns="http://www.w3.org/2000/svg"
 width="193.000000pt" height="220.000000pt" viewBox="0 0 193.000000 220.000000"
 preserveAspectRatio="xMidYMid meet">
<metadata>
Created by potrace 1.10, written by Peter Selinger 2001-2011
</metadata>
<g transform="translate(0.000000,220.000000) scale(0.100000,-0.100000)"
fill="#000000" stroke="none">
<path d="M136 2061 c-4 -6 -8 -343 -8 -749 0 -405 -4 -784 -8 -842 -9 -130 -4
-145 84 -233 110 -110 184 -144 341 -156 91 -8 107 -6 173 15 260 85 458 289
588 605 57 138 86 189 134 234 29 28 37 30 121 34 110 4 114 8 123 137 6 97
22 148 55 178 30 27 26 60 -20 167 -39 91 -40 96 -34 171 4 47 13 82 21 89 15
13 20 89 5 89 -5 0 -21 20 -35 44 -36 61 -108 122 -154 131 -20 3 -63 19 -94
36 -31 16 -70 29 -86 29 -16 0 -49 7 -75 16 -64 22 -157 15 -479 -33 -116 -17
-190 -13 -273 14 -32 11 -89 17 -160 18 -60 1 -133 5 -161 10 -35 5 -53 4 -58
-4z m1088 -20 c9 -14 -20 -21 -84 -21 -64 0 -93 7 -84 21 3 5 41 9 84 9 43 0
81 -4 84 -9z m-744 -31 c0 -5 -19 -10 -42 -10 -24 -1 -75 -6 -114 -13 -91 -16
-114 -9 -43 13 59 20 199 26 199 10z m460 -10 c-8 -5 -28 -10 -43 -10 -15 0
-57 -7 -92 -16 -36 -9 -72 -13 -81 -10 -24 9 -12 17 48 32 64 15 190 18 168 4z
m120 -10 c13 -8 12 -10 -1 -15 -15 -6 -69 10 -69 20 0 9 54 5 70 -5z m275 1
c-17 -14 -76 -31 -113 -31 -45 0 -32 16 23 29 53 12 102 13 90 2z m-985 -46
c10 -12 8 -13 -10 -10 -11 2 -32 0 -46 -5 -13 -5 -24 -6 -24 -2 0 4 15 13 33
19 17 5 33 11 33 12 1 0 7 -6 14 -14z m258 -11 c44 -19 135 -19 212 -1 81 19
150 20 227 2 82 -20 209 -23 240 -7 12 7 53 12 91 12 66 0 74 -3 133 -42 72
-50 90 -71 71 -90 -10 -10 -20 -4 -52 33 -39 46 -99 79 -143 79 -13 0 -57 -9
-98 -20 -94 -25 -167 -25 -247 0 -71 22 -151 20 -277 -6 -73 -16 -125 -11
-250 21 -27 7 -63 16 -78 19 -17 4 -25 11 -21 18 9 15 143 3 192 -18z m1002
-41 c52 -57 57 -67 38 -79 -6 -4 -20 5 -32 22 -11 16 -40 47 -64 69 -23 23
-40 43 -37 47 14 14 48 -8 95 -59z m-1370 27 c0 -11 -63 -24 -82 -17 -8 3 -4
9 12 15 32 14 70 15 70 2z m313 -50 c33 -8 56 -18 54 -24 -5 -15 -169 -20
-237 -7 -43 9 -71 8 -128 -4 -40 -9 -77 -13 -83 -10 -29 18 12 39 114 58 72
13 181 8 280 -13z m928 -10 c24 -13 25 -36 2 -49 -12 -6 -32 -3 -61 8 -40 16
-51 16 -137 2 -69 -11 -100 -12 -117 -4 -28 13 -26 14 94 39 91 20 186 21 219
4z m-451 0 c13 -9 13 -11 0 -20 -8 -6 -24 -8 -35 -5 -11 2 -27 5 -36 5 -8 0
-24 7 -35 15 -17 13 -15 14 36 15 30 0 62 -5 70 -10z m-136 -40 c93 -15 199
-70 266 -140 110 -111 186 -312 197 -515 6 -124 -4 -209 -42 -341 -61 -207
-138 -352 -254 -476 -282 -300 -617 -332 -852 -80 l-69 74 0 484 c0 549 -7
499 88 634 133 189 306 318 477 355 74 17 114 18 189 5z m-648 -35 c-11 -8
-16 -15 -11 -15 5 0 -1 -7 -13 -16 -12 -8 -22 -21 -22 -28 0 -14 -29 -30 -38
-21 -3 3 0 5 7 5 8 0 10 7 6 20 -7 22 11 63 25 55 4 -3 19 -1 32 4 33 14 36
13 14 -4z m226 -1 c16 -10 -3 -24 -32 -24 -46 0 -130 21 -130 32 0 11 144 3
162 -8z m666 4 c-3 -7 -13 -13 -23 -13 -10 0 -20 6 -22 13 -3 7 5 12 22 12 17
0 25 -5 23 -12z m289 -12 c33 -12 43 -12 66 0 19 10 33 12 45 5 10 -5 44 -7
75 -4 39 4 57 2 57 -6 0 -6 0 -13 0 -16 0 -3 -57 -8 -127 -10 -71 -2 -139 -4
-153 -4 -13 -1 -29 4 -34 9 -18 18 -109 11 -145 -11 -30 -18 -36 -19 -49 -5
-27 27 -8 46 40 40 24 -3 61 -1 83 4 58 14 97 14 142 -2z m-1048 -45 c8 -5 10
-14 6 -21 -13 -21 -155 -1 -155 21 0 12 131 11 149 0z m981 -20 c0 -17 -22
-24 -77 -22 -59 1 -77 7 -68 22 8 12 145 12 145 0z m298 -14 c10 -8 12 -29 7
-81 -5 -66 -3 -77 31 -156 51 -121 53 -134 15 -169 -17 -16 -31 -37 -31 -48 0
-10 -8 -29 -17 -42 -12 -18 -17 -47 -17 -110 l-1 -86 -91 -3 c-86 -3 -92 -4
-119 -32 -16 -17 -34 -30 -39 -30 -7 0 -11 59 -11 178 -1 203 -15 272 -87 419
-33 68 -38 86 -28 98 7 8 21 15 32 15 10 0 38 10 61 22 23 11 53 24 67 28 39
11 213 8 228 -3z m-1338 -37 c0 -11 -77 -23 -113 -18 -38 4 -35 22 5 28 43 7
108 0 108 -10z m-56 -71 c17 -15 -2 -22 -61 -22 -56 0 -59 2 -54 33 1 11 101
2 115 -11z m-59 -94 c0 -25 -37 -32 -54 -11 -18 21 -4 38 27 34 19 -2 27 -9
27 -23z"/>
<path d="M1029 1500 c-18 -14 -58 -22 -140 -31 -141 -14 -209 -38 -264 -93
-69 -69 -85 -173 -30 -198 43 -19 56 3 49 81 -5 58 -3 69 15 93 12 14 43 34
69 42 53 18 201 40 209 32 3 -3 -12 -25 -33 -48 -56 -61 -133 -166 -264 -363
-132 -198 -248 -352 -287 -380 -28 -20 -84 -25 -130 -12 -44 11 -70 -44 -37
-77 18 -19 62 -20 118 -4 58 17 163 126 256 266 l75 112 117 0 c65 0 118 -3
118 -7 0 -24 -51 -208 -60 -217 -5 -5 -10 -12 -10 -16 0 -3 61 -6 135 -7 139
-2 135 -3 135 34 0 3 -26 6 -58 5 -77 -3 -82 1 -71 68 4 30 15 109 24 175 27
208 64 438 80 499 9 32 14 60 13 62 -2 1 -15 -6 -29 -16z m-40 -122 c-1 -30
-17 -71 -18 -46 -1 9 -5 18 -11 20 -14 5 0 48 16 48 8 0 14 -10 13 -22z m-52
-42 c-16 -40 -30 -109 -47 -228 -11 -72 -21 -133 -23 -135 -3 -2 -47 -2 -100
-1 l-96 3 127 187 c70 103 131 188 136 188 4 0 6 -6 3 -14z m-17 -390 c0 -14
-4 -27 -9 -31 -12 -7 -25 31 -16 45 11 18 25 10 25 -14z"/>
</g>
</svg>
